<?xml version="1.0" encoding="UTF-8"?>
<svg version="1.1" xmlns="http://www.w3.org/2000/svg" width="418" height="210">
<path d="M0 0 C0.495 0.99 0.495 0.99 1 2 C7.93 2 14.86 2 22 2 C22 2.66 22 3.32 22 4 C21.34 4 20.68 4 20 4 C21.3371014 9.66978961 22.97989369 15.10868308 24.93359375 20.59375 C25.21219742 21.38471069 25.49080109 22.17567139 25.77784729 22.99060059 C26.66100645 25.4949467 27.54925772 27.99745292 28.4375 30.5 C29.02961271 32.17827402 29.62141223 33.85665857 30.21289062 35.53515625 C32.21999991 41.22977039 32.21999991 41.22977039 34.25265503 46.9152832 C34.76412545 48.34202858 35.26351193 49.77314787 35.75247192 51.20776367 C37.03540886 54.86338651 38.12982534 57.40461505 41 60 C39.37585622 60.19477739 37.75063577 60.38059458 36.125 60.5625 C34.76761719 60.71912109 34.76761719 60.71912109 33.3828125 60.87890625 C31 61 31 61 29 60 C29 60.66 29 61.32 29 62 C27.02 62.33 25.04 62.66 23 63 C22.90203125 63.680625 22.8040625 64.36125 22.703125 65.0625 C21.34548926 73.86372482 19.24965151 82.39453695 17 91 C15.0625 91.5625 15.0625 91.5625 13 92 C12.67 91.67 12.34 91.34 12 91 C12.3737997 86.70130346 13.31225616 82.77045889 14.5 78.625 C15.88902649 73.72614073 16.5844047 69.07026261 17 64 C12.545 64.495 12.545 64.495 8 65 C7.80664062 65.92941406 7.61328125 66.85882813 7.4140625 67.81640625 C4.82776801 80.09490334 4.82776801 80.09490334 3 86 C1.68 86 0.36 86 -1 86 C-1.40850553 78.91923749 0.09579269 72.80074041 2 66 C1.01 66 0.02 66 -1 66 C-1 64.35 -1 62.7 -1 61 C-0.37609375 60.93683594 0.2478125 60.87367187 0.890625 60.80859375 C3.22035345 60.19425372 3.22035345 60.19425372 4.046875 57.78515625 C4.27890625 56.88667969 4.5109375 55.98820312 4.75 55.0625 C5.11351562 53.71865234 5.11351562 53.71865234 5.484375 52.34765625 C6.07150691 50.07502915 6.07150691 50.07502915 6 48 C3.36 48.66 0.72 49.32 -2 50 C-2.66 52.64 -3.32 55.28 -4 58 C-2.02 58.495 -2.02 58.495 0 59 C-0.62938477 59.38067627 -1.25876953 59.76135254 -1.90722656 60.15356445 C-4.57974893 62.51150737 -4.82320502 64.07182636 -5.484375 67.54296875 C-5.69707031 68.61611328 -5.90976563 69.68925781 -6.12890625 70.79492188 C-6.33386719 71.91447266 -6.53882813 73.03402344 -6.75 74.1875 C-7.08064453 75.88422852 -7.08064453 75.88422852 -7.41796875 77.61523438 C-7.95996403 80.40768831 -8.48663589 83.20216561 -9 86 C-10.32 86.33 -11.64 86.66 -13 87 C-14.0584184 80.33196411 -13.73700232 75.47226981 -12 69 C-11.61766784 67.3141461 -11.24243909 65.62666244 -10.875 63.9375 C-10.58625 62.638125 -10.2975 61.33875 -10 60 C-14.29 60 -18.58 60 -23 60 C-23.0825 61.051875 -23.165 62.10375 -23.25 63.1875 C-23.99189937 69.33308436 -26.07941803 75.13999174 -28 81 C-25.69 81 -23.38 81 -21 81 C-21 81.99 -21 82.98 -21 84 C-26.946072 87.03910346 -32.36906706 87.65226572 -39 88 C-39 87.01 -39 86.02 -39 85 C-38.38253906 84.55785156 -37.76507813 84.11570312 -37.12890625 83.66015625 C-34.37223264 81.51045665 -33.93784651 79.75899686 -32.9375 76.4375 C-32.61136719 75.37917969 -32.28523438 74.32085937 -31.94921875 73.23046875 C-31.63597656 72.16441406 -31.32273438 71.09835938 -31 70 C-30.69707031 69.00613281 -30.39414063 68.01226562 -30.08203125 66.98828125 C-29.37538614 64.66265581 -28.68583722 62.33184654 -28 60 C-32.95 60.495 -32.95 60.495 -38 61 C-38.29132813 61.99 -38.58265625 62.98 -38.8828125 64 C-41.55496198 72.73145286 -44.05372898 80.70248599 -52 86 C-54.375 86.0625 -54.375 86.0625 -57 85 C-58.91714913 82.81643505 -60.48214828 80.47377535 -62 78 C-62.44730469 78.71027344 -62.89460938 79.42054688 -63.35546875 80.15234375 C-63.96003906 81.07144531 -64.56460938 81.99054688 -65.1875 82.9375 C-65.77917969 83.85402344 -66.37085938 84.77054687 -66.98046875 85.71484375 C-69 88 -69 88 -71.59765625 88.89453125 C-74 89 -74 89 -76.25 87.75 C-80.24638163 81.46997173 -79.31703574 73.06410079 -78 66 C-77.38761101 63.98271862 -76.74023321 61.97395523 -76 60 C-76.66 59.67 -77.32 59.34 -78 59 C-77.01 58.34 -76.02 57.68 -75 57 C-73.02194285 51.06088855 -72.71671369 45.57494916 -72.76953125 39.35546875 C-72.76998947 38.46386551 -72.77044769 37.57226227 -72.7709198 36.65364075 C-72.77392202 34.78380997 -72.7817468 32.91398124 -72.79418945 31.04418945 C-72.81255795 28.17845857 -72.81469804 25.31304953 -72.81445312 22.44726562 C-72.81936506 20.6249972 -72.82519196 18.80273096 -72.83203125 16.98046875 C-72.83314407 16.12422409 -72.8342569 15.26797943 -72.83540344 14.38578796 C-72.8624655 11.01439346 -72.92668311 8.21995066 -74 5 C-75.32 4.01 -76.64 3.02 -78 2 C-70.41 2 -62.82 2 -55 2 C-56.32 2.99 -57.64 3.98 -59 5 C-59.91645897 8.17601208 -59.91645897 8.17601208 -60.25 11.6875 C-60.4975 13.770625 -60.745 15.85375 -61 18 C-52.75 18 -44.5 18 -36 18 C-36.2475 15.916875 -36.495 13.83375 -36.75 11.6875 C-36.88921875 10.51574219 -37.0284375 9.34398438 -37.171875 8.13671875 C-37.78016053 4.51869319 -37.78016053 4.51869319 -42 2 C-34.41 2 -26.82 2 -19 2 C-20.65 3.65 -22.3 5.3 -24 7 C-24.73575636 9.00705927 -24.73575636 9.00705927 -24.65942383 11.0559082 C-24.68888847 12.19652458 -24.68888847 12.19652458 -24.71894836 13.36018372 C-24.71304939 14.5682795 -24.71304939 14.5682795 -24.70703125 15.80078125 C-24.72215256 16.63715622 -24.73727386 17.47353119 -24.75285339 18.33525085 C-24.79568438 20.99460913 -24.80456356 23.65283138 -24.8125 26.3125 C-24.83564801 28.12047281 -24.86101399 29.92841868 -24.88867188 31.73632812 C-24.95147838 36.1576523 -24.98384958 40.57826919 -25 45 C-24.40219727 44.68305176 -23.80439453 44.36610352 -23.18847656 44.03955078 C-20.40712507 42.71837779 -17.78907346 42.3374677 -14.75 41.875 C-13.67234375 41.70742187 -12.5946875 41.53984375 -11.484375 41.3671875 C-10.25460938 41.18542969 -10.25460938 41.18542969 -9 41 C-8.83056885 40.39631592 -8.6611377 39.79263184 -8.48657227 39.1706543 C-6.66686248 32.87716282 -4.4435939 26.86153185 -1.9375 20.8125 C0.35695315 15.25950239 2.48048575 9.81824368 4 4 C2.68 3.67 1.36 3.34 0 3 C0 2.01 0 1.02 0 0 Z M9 11 C7.99394407 13.60197202 6.99497475 16.20629362 6 18.8125 C5.71382813 19.55048828 5.42765625 20.28847656 5.1328125 21.04882812 C4.86210937 21.76103516 4.59140625 22.47324219 4.3125 23.20703125 C4.06113281 23.8616333 3.80976563 24.51623535 3.55078125 25.19067383 C2.85439094 27.16311143 2.85439094 27.16311143 3 30 C3.60328125 30.13277344 4.2065625 30.26554687 4.828125 30.40234375 C6.02695313 30.66724609 6.02695313 30.66724609 7.25 30.9375 C8.43335938 31.19853516 8.43335938 31.19853516 9.640625 31.46484375 C11.76878703 31.947556 13.88532842 32.46163178 16 33 C15.52960495 25.16008251 12.77062812 18.27928865 10 11 C9.67 11 9.34 11 9 11 Z M-61 22 C-61.02295853 26.5024238 -61.04287111 31.00464438 -61.05493164 35.50708008 C-61.0599596 37.0386626 -61.06678284 38.57024033 -61.07543945 40.10180664 C-61.08757229 42.30356022 -61.09324367 44.50525033 -61.09765625 46.70703125 C-61.10281754 47.39150833 -61.10797882 48.07598541 -61.11329651 48.78120422 C-61.1136536 51.80906242 -60.96616619 54.10150142 -60 57 C-59.34 57 -58.68 57 -58 57 C-58 56.34 -58 55.68 -58 55 C-56.68 55.66 -55.36 56.32 -54 57 C-54.9296875 63.640625 -54.9296875 63.640625 -55.5625 66.875 C-56.13059134 70.93279525 -56.0817948 74.91026011 -56 79 C-52.95086772 80.01111093 -52.95086772 80.01111093 -50 79 C-46.68151538 73.82746325 -45.38588988 67.89832298 -44.25 61.9375 C-44.12246338 61.27741943 -43.99492676 60.61733887 -43.86352539 59.93725586 C-43.0307626 55.21592916 -42.89363327 50.77054774 -43 46 C-41.35 46 -39.7 46 -38 46 C-38 48.97 -38 51.94 -38 55 C-37.01 54.505 -37.01 54.505 -36 54 C-36 43.44 -36 32.88 -36 22 C-44.25 22 -52.5 22 -61 22 Z M1 34 C-0.31626692 37.61973402 -1 40.09567131 -1 44 C5.44070471 44.10655578 11.62641289 43.96205088 18 43 C18 44.32 18 45.64 18 47 C17.21625 46.95875 16.4325 46.9175 15.625 46.875 C12.83883881 46.71271266 12.83883881 46.71271266 11 49 C10.31822002 51.65719837 10.31822002 51.65719837 9.875 54.625 C9.62363281 56.12933594 9.62363281 56.12933594 9.3671875 57.6640625 C9.24601562 58.43492188 9.12484375 59.20578125 9 60 C12.05058925 60.28779144 14.95730859 60.41614074 18 60 C21.01086147 56.98913853 21.75357145 53.14441468 22.12109375 48.984375 C21.86666474 44.81502225 19.42100192 42.35709443 16.5234375 39.58984375 C11.82223842 35.76872696 6.91076052 34.79682285 1 34 Z M-19 52 C-20.4606285 54.64738916 -21 55.89448334 -21 59 C-20.34 59 -19.68 59 -19 59 C-18.67 57.35 -18.34 55.7 -18 54 C-16.68 53.67 -15.36 53.34 -14 53 C-14 52.67 -14 52.34 -14 52 C-15.65 52 -17.3 52 -19 52 Z M-71.74609375 62.109375 C-73.16703065 65.38505507 -73.53560288 68.00433242 -73.75 71.5625 C-73.82734375 72.67753906 -73.9046875 73.79257813 -73.984375 74.94140625 C-73.99777066 77.56360738 -73.79834181 79.52635 -73 82 C-68.82866179 80.60955393 -68.26193359 78.38506534 -66.2734375 74.625 C-62.56696667 67.60133124 -62.56696667 67.60133124 -61 60 C-62.43489809 59.86463226 -63.87347107 59.76782857 -65.3125 59.6875 C-66.11300781 59.62949219 -66.91351563 59.57148437 -67.73828125 59.51171875 C-70.20020231 59.79924453 -70.20020231 59.79924453 -71.74609375 62.109375 Z " fill="#FCDBE6" transform="translate(231,62)"/>
<path d="M0 0 C7.59 0 15.18 0 23 0 C21.68 0.99 20.36 1.98 19 3 C18.08354103 6.17601208 18.08354103 6.17601208 17.75 9.6875 C17.5025 11.770625 17.255 13.85375 17 16 C25.25 16 33.5 16 42 16 C41.7525 13.916875 41.505 11.83375 41.25 9.6875 C41.11078125 8.51574219 40.9715625 7.34398438 40.828125 6.13671875 C40.21983947 2.51869319 40.21983947 2.51869319 36 0 C43.59 0 51.18 0 59 0 C57.35 1.65 55.7 3.3 54 5 C53.29729731 7.0515835 53.29729731 7.0515835 53.43237305 9.14770508 C53.4327507 9.92813675 53.43312836 10.70856842 53.43351746 11.51264954 C53.45932388 12.3399205 53.48513031 13.16719147 53.51171875 14.01953125 C53.52233086 15.30738777 53.52233086 15.30738777 53.53315735 16.6212616 C53.56105598 19.35257603 53.62378309 22.08180958 53.6875 24.8125 C53.71258886 26.6685901 53.73540101 28.52471246 53.75585938 30.38085938 C53.81086747 34.92136972 53.89710636 39.46033257 54 44 C50.535 45.98 50.535 45.98 47 48 C49.97 47.505 49.97 47.505 53 47 C54.20260664 53.2535545 54.20260664 53.2535545 53.40625 56.1875 C52 58 52 58 49.1796875 58.609375 C48.08914062 58.65578125 46.99859375 58.7021875 45.875 58.75 C44.77929688 58.80671875 43.68359375 58.8634375 42.5546875 58.921875 C41.71164063 58.94765625 40.86859375 58.9734375 40 59 C39.70867187 59.99 39.41734375 60.98 39.1171875 62 C36.44503802 70.73145286 33.94627102 78.70248599 26 84 C23.625 84.0625 23.625 84.0625 21 83 C19.08285087 80.81643505 17.51785172 78.47377535 16 76 C15.55269531 76.71027344 15.10539062 77.42054688 14.64453125 78.15234375 C14.03996094 79.07144531 13.43539062 79.99054688 12.8125 80.9375 C12.22082031 81.85402344 11.62914062 82.77054687 11.01953125 83.71484375 C9 86 9 86 6.40234375 86.89453125 C4 87 4 87 1.75 85.75 C-2.24638163 79.46997173 -1.31703574 71.06410079 0 64 C0.61238899 61.98271862 1.25976679 59.97395523 2 58 C1.34 57.67 0.68 57.34 0 57 C0.99 56.34 1.98 55.68 3 55 C4.97805715 49.06088855 5.28328631 43.57494916 5.23046875 37.35546875 C5.23001053 36.46386551 5.22955231 35.57226227 5.2290802 34.65364075 C5.22607798 32.78380997 5.2182532 30.91398124 5.20581055 29.04418945 C5.18744205 26.17845857 5.18530196 23.31304953 5.18554688 20.44726562 C5.18063494 18.6249972 5.17480804 16.80273096 5.16796875 14.98046875 C5.16685593 14.12422409 5.1657431 13.26797943 5.16459656 12.38578796 C5.1375345 9.01439346 5.07331689 6.21995066 4 3 C2.68 2.01 1.36 1.02 0 0 Z M17 20 C16.97704147 24.5024238 16.95712889 29.00464438 16.94506836 33.50708008 C16.9400404 35.0386626 16.93321716 36.57024033 16.92456055 38.10180664 C16.91242771 40.30356022 16.90675633 42.50525033 16.90234375 44.70703125 C16.89718246 45.39150833 16.89202118 46.07598541 16.88670349 46.78120422 C16.8863464 49.80906242 17.03383381 52.10150142 18 55 C18.66 55 19.32 55 20 55 C20 54.34 20 53.68 20 53 C21.32 53.66 22.64 54.32 24 55 C23.0703125 61.640625 23.0703125 61.640625 22.4375 64.875 C21.86940866 68.93279525 21.9182052 72.91026011 22 77 C25.04913228 78.01111093 25.04913228 78.01111093 28 77 C31.31848462 71.82746325 32.61411012 65.89832298 33.75 59.9375 C33.87753662 59.27741943 34.00507324 58.61733887 34.13647461 57.93725586 C34.9692374 53.21592916 35.10636673 48.77054774 35 44 C36.65 44 38.3 44 40 44 C40 46.97 40 49.94 40 53 C40.99 52.505 40.99 52.505 42 52 C42 41.44 42 30.88 42 20 C33.75 20 25.5 20 17 20 Z M6.25390625 60.109375 C4.83296935 63.38505507 4.46439712 66.00433242 4.25 69.5625 C4.17265625 70.67753906 4.0953125 71.79257813 4.015625 72.94140625 C4.00222934 75.56360738 4.20165819 77.52635 5 80 C9.17133821 78.60955393 9.73806641 76.38506534 11.7265625 72.625 C15.43303333 65.60133124 15.43303333 65.60133124 17 58 C15.56510191 57.86463226 14.12652893 57.76782857 12.6875 57.6875 C11.88699219 57.62949219 11.08648437 57.57148437 10.26171875 57.51171875 C7.79979769 57.79924453 7.79979769 57.79924453 6.25390625 60.109375 Z " fill="#CEA63C" transform="translate(153,64)"/>
<path d="M0 0 C1.86398438 0.02707031 1.86398438 0.02707031 3.765625 0.0546875 C6.80242183 0.10140745 9.83881663 0.1731346 12.875 0.25 C14.195 5.53 15.515 10.81 16.875 16.25 C15.885 16.25 14.895 16.25 13.875 16.25 C12.62109375 14.82421875 12.62109375 14.82421875 11.3125 12.9375 C7.60931305 8.41851196 3.57116801 7.05638523 -2.125 6.25 C-7.45001278 6.13204086 -11.87676513 6.8514121 -16.125 10.25 C-21.88494394 16.50365342 -22.70201067 22.22555197 -22.5625 30.53515625 C-21.6548215 38.24231923 -18.29204346 44.9315099 -12.25 49.875 C-6.2275539 53.7490213 -0.38013736 54.85430102 6.6953125 53.875 C10.39116939 52.81525609 12.88747362 50.62782712 15.875 48.25 C16.535 48.25 17.195 48.25 17.875 48.25 C18.143125 47.445625 18.41125 46.64125 18.6875 45.8125 C19.079375 44.966875 19.47125 44.12125 19.875 43.25 C20.865 42.92 21.855 42.59 22.875 42.25 C22.19083566 46.42576168 20.86134991 50.13080407 19.3125 54.0625 C18.85746094 55.22394531 18.40242188 56.38539062 17.93359375 57.58203125 C17.58425781 58.46246094 17.23492187 59.34289062 16.875 60.25 C13.25149042 60.50869267 9.62656841 60.72639461 6 60.9375 C4.98679688 61.01033203 3.97359375 61.08316406 2.9296875 61.15820312 C-8.01792825 61.75470783 -16.61386557 59.22944604 -25.125 52.25 C-32.43920474 45.51809117 -35.10853018 39.21080804 -35.52539062 29.31616211 C-35.64295347 22.57254049 -35.43863214 16.71564072 -31.125 11.25 C-30.63902344 10.62738281 -30.15304688 10.00476563 -29.65234375 9.36328125 C-21.56590802 0.24453457 -11.55072727 -0.32154059 0 0 Z " fill="#CBA63A" transform="translate(129.125,62.75)"/>
<path d="M0 0 C0.33 0.66 0.66 1.32 1 2 C7.93 2 14.86 2 22 2 C22 2.66 22 3.32 22 4 C21.34 4 20.68 4 20 4 C21.3371014 9.66978961 22.97989369 15.10868308 24.93359375 20.59375 C25.21219742 21.38471069 25.49080109 22.17567139 25.77784729 22.99060059 C26.66100645 25.4949467 27.54925772 27.99745292 28.4375 30.5 C29.02961271 32.17827402 29.62141223 33.85665857 30.21289062 35.53515625 C32.21999991 41.22977039 32.21999991 41.22977039 34.25265503 46.9152832 C34.76412545 48.34202858 35.26351193 49.77314787 35.75247192 51.20776367 C37.03540886 54.86338651 38.12982534 57.40461505 41 60 C35.0885256 60.77313045 29.8685408 61.14819277 24 60 C22.91442108 56.74004193 23.08689849 54.89457573 24.21484375 51.671875 C24.48876953 50.87265625 24.76269531 50.0734375 25.04492188 49.25 C25.33947266 48.425 25.63402344 47.6 25.9375 46.75 C26.22818359 45.90953125 26.51886719 45.0690625 26.81835938 44.203125 C27.53621233 42.13194269 28.26366119 40.06466738 29 38 C26.38952199 39.305239 26.31933577 40.35826574 25.375 43.0625 C25.11460937 43.79597656 24.85421875 44.52945313 24.5859375 45.28515625 C24.39257812 45.85105469 24.19921875 46.41695312 24 47 C23.01 47 22.02 47 21 47 C20.46375 46.113125 19.9275 45.22625 19.375 44.3125 C16.6890867 39.95305611 12.60730789 37.97342376 8 36 C4.64745324 35.14360715 4.64745324 35.14360715 2 35 C1.01 37.64 0.02 40.28 -1 43 C-2.32 43 -3.64 43 -5 43 C-5.33 44.32 -5.66 45.64 -6 47 C-7.65 47 -9.3 47 -11 47 C-10.690625 46.29875 -10.38125 45.5975 -10.0625 44.875 C-8.91213963 42.05965693 -8.91213963 42.05965693 -8.57202148 39.18334961 C-7.98798723 35.93314788 -7.04332252 33.23936902 -5.78515625 30.19140625 C-5.34623047 29.11439453 -4.90730469 28.03738281 -4.45507812 26.92773438 C-3.99552734 25.81720703 -3.53597656 24.70667969 -3.0625 23.5625 C0.94405546 13.94369242 0.94405546 13.94369242 4 4 C2.68 3.67 1.36 3.34 0 3 C0 2.01 0 1.02 0 0 Z M9 11 C7.99394407 13.60197202 6.99497475 16.20629362 6 18.8125 C5.71382812 19.55048828 5.42765625 20.28847656 5.1328125 21.04882812 C4.86210937 21.76103516 4.59140625 22.47324219 4.3125 23.20703125 C4.06113281 23.8616333 3.80976563 24.51623535 3.55078125 25.19067383 C2.85439094 27.16311143 2.85439094 27.16311143 3 30 C3.60328125 30.13277344 4.2065625 30.26554687 4.828125 30.40234375 C6.02695313 30.66724609 6.02695313 30.66724609 7.25 30.9375 C8.43335938 31.19853516 8.43335938 31.19853516 9.640625 31.46484375 C11.76878703 31.947556 13.88532842 32.46163178 16 33 C15.52960495 25.16008251 12.77062812 18.27928865 10 11 C9.67 11 9.34 11 9 11 Z " fill="#D1A044" transform="translate(231,62)"/>
<path d="M0 0 C15.18 0 30.36 0 46 0 C50 16 50 16 50 18 C47 17 47 17 45.1875 14.125 C41.01116864 8.15881235 36.02752164 7.75688041 29 6 C29.33 22.83 29.66 39.66 30 57 C31.32 57.33 32.64 57.66 34 58 C34 58.33 34 58.66 34 59 C26.74 59 19.48 59 12 59 C12.33 58.34 12.66 57.68 13 57 C13.99 57 14.98 57 16 57 C16.33 40.17 16.66 23.34 17 6 C5.15384948 9.24212837 5.15384948 9.24212837 -2 18 C-2.66 18 -3.32 18 -4 18 C-3.71301899 16.31169683 -3.42014974 14.62439428 -3.125 12.9375 C-2.96257812 11.99777344 -2.80015625 11.05804688 -2.6328125 10.08984375 C-1.93541094 6.68462997 -0.95490194 3.34215681 0 0 Z " fill="#CDA735" transform="translate(271,63)"/>
<path d="M0 0 C0.99 0 1.98 0 3 0 C2.72285156 0.55042969 2.44570312 1.10085937 2.16015625 1.66796875 C-2.7474381 11.40746966 -2.7474381 11.40746966 -5 22 C-5.34344998 23.62729872 -5.69854601 25.25216405 -6.0625 26.875 C-7.0564363 31.67534419 -7.15783395 36.10714741 -7 41 C-0.77147235 35.66126201 1.80027686 27.35255531 5 20 C5.66 20 6.32 20 7 20 C7.33 18.02 7.66 16.04 8 14 C9.32 14.33 10.64 14.66 12 15 C13.10489351 18.42516988 12.91643538 20.84023004 12.0625 24.25 C10.88677876 28.9449942 10.84670576 33.17123142 11 38 C12.65 38 14.3 38 16 38 C16.18755859 37.18789062 16.18755859 37.18789062 16.37890625 36.359375 C16.82498763 34.66482685 17.34167549 32.98828558 17.90234375 31.328125 C20.83989308 22.59307266 22.11021463 14.12030007 23 5 C24.65 5 26.3 5 28 5 C28.495 10.445 28.495 10.445 29 16 C28.01 16.33 27.02 16.66 26 17 C26 17.66 26 18.32 26 19 C26.66 19.33 27.32 19.66 28 20 C22.26457883 39.49028078 22.26457883 39.49028078 14 45 C11.625 45.0625 11.625 45.0625 9 44 C7.08285087 41.81643505 5.51785172 39.47377535 4 37 C3.32904297 38.06541016 3.32904297 38.06541016 2.64453125 39.15234375 C2.03996094 40.07144531 1.43539062 40.99054688 0.8125 41.9375 C0.22082031 42.85402344 -0.37085938 43.77054688 -0.98046875 44.71484375 C-3 47 -3 47 -5.59765625 47.89453125 C-8 48 -8 48 -10.25 46.75 C-14.24638163 40.46997173 -13.31703574 32.06410079 -12 25 C-11.38761101 22.98271862 -10.74023321 20.97395523 -10 19 C-10.66 18.67 -11.32 18.34 -12 18 C-11.01 17.34 -10.02 16.68 -9 16 C-8.21011855 14.04614933 -8.21011855 14.04614933 -7.8125 11.875 C-7.544375 10.59625 -7.27625 9.3175 -7 8 C-6.34 8.33 -5.68 8.66 -5 9 C-3.35 6.03 -1.7 3.06 0 0 Z " fill="#FEE7FB" transform="translate(165,103)"/>
<path d="M0 0 C0.66 0 1.32 0 2 0 C1.50268028 5.5948468 -0.11042624 10.32407541 -2.16015625 15.546875 C-3.16195031 18.04089461 -3.16195031 18.04089461 -3 21 C-1.35 21 0.3 21 2 21 C2 21.99 2 22.98 2 24 C0.02 24.33 -1.96 24.66 -4 25 C-4.09796875 25.680625 -4.1959375 26.36125 -4.296875 27.0625 C-5.65451074 35.86372482 -7.75034849 44.39453695 -10 53 C-11.9375 53.5625 -11.9375 53.5625 -14 54 C-14.33 53.67 -14.66 53.34 -15 53 C-14.6262003 48.70130346 -13.68774384 44.77045889 -12.5 40.625 C-11.11097351 35.72614073 -10.4155953 31.07026261 -10 26 C-12.97 26.33 -15.94 26.66 -19 27 C-19.19335938 27.92941406 -19.38671875 28.85882813 -19.5859375 29.81640625 C-22.17223199 42.09490334 -22.17223199 42.09490334 -24 48 C-25.32 48 -26.64 48 -28 48 C-28.40850553 40.91923749 -26.90420731 34.80074041 -25 28 C-25.99 28 -26.98 28 -28 28 C-28 26.35 -28 24.7 -28 23 C-27.37609375 22.93683594 -26.7521875 22.87367187 -26.109375 22.80859375 C-23.77964655 22.19425372 -23.77964655 22.19425372 -22.953125 19.78515625 C-22.60507813 18.43744141 -22.60507813 18.43744141 -22.25 17.0625 C-22.00765625 16.16660156 -21.7653125 15.27070312 -21.515625 14.34765625 C-20.92849309 12.07502915 -20.92849309 12.07502915 -21 10 C-22.65 10.33 -24.3 10.66 -26 11 C-25.67 9.68 -25.34 8.36 -25 7 C-19.42932723 5.40837921 -14.78898419 4.79325056 -9 5 C-9 6.32 -9 7.64 -9 9 C-9.928125 9.103125 -10.85625 9.20625 -11.8125 9.3125 C-15.18202658 10.66226191 -15.18202658 10.66226191 -16.06640625 13.58203125 C-16.80909935 16.37699708 -17.45850903 19.15954736 -18 22 C-15.03 21.67 -12.06 21.34 -9 21 C-8.79503906 20.38511719 -8.59007812 19.77023438 -8.37890625 19.13671875 C-7.25260417 15.7578125 -6.12630208 12.37890625 -5 9 C-4.34 9 -3.68 9 -3 9 C-2.01 6.03 -1.02 3.06 0 0 Z " fill="#FDE6FA" transform="translate(258,100)"/>
<path d="M0 0 C0.33 0.66 0.66 1.32 1 2 C7.93 2 14.86 2 22 2 C22 2.66 22 3.32 22 4 C21.34 4 20.68 4 20 4 C21.41154433 10.17372419 23.36682346 15.96335085 25.625 21.875 C26.26595607 23.55878142 26.90412247 25.24362827 27.5390625 26.9296875 C27.95986084 28.03159424 27.95986084 28.03159424 28.38916016 29.15576172 C29 31 29 31 29 33 C28.01 33 27.02 33 26 33 C26 33.66 26 34.32 26 35 C25.01 35 24.02 35 23 35 C22.34 35.66 21.68 36.32 21 37 C18 36 18 36 16 33 C15.54623632 31.72556744 15.14308572 30.43242255 14.78125 29.12890625 C14.57113281 28.38962891 14.36101562 27.65035156 14.14453125 26.88867188 C13.93183594 26.12103516 13.71914062 25.35339844 13.5 24.5625 C11.77887532 18.07780835 11.77887532 18.07780835 9 12 C7.68 14.31 6.36 16.62 5 19 C4.34 19 3.68 19 3 19 C2.67 19.66 2.34 20.32 2 21 C1.67 20.67 1.34 20.34 1 20 C1.15449757 14.46185633 2.32329318 9.25368138 4 4 C2.68 3.67 1.36 3.34 0 3 C0 2.01 0 1.02 0 0 Z " fill="#CBA53D" transform="translate(231,62)"/>
<path d="M0 0 C3.96 0 7.92 0 12 0 C11.67 0.66 11.34 1.32 11 2 C10.86846312 4.32585322 10.79704441 6.65520471 10.75390625 8.984375 C10.72095027 10.40885991 10.68773893 11.83333892 10.65429688 13.2578125 C10.6070277 15.50028181 10.56262783 17.74273032 10.52319336 19.98535156 C10.48322182 22.15195244 10.43172311 24.31805435 10.37890625 26.484375 C10.3538501 27.78084961 10.32879395 29.07732422 10.30297852 30.41308594 C10.00665703 33.92118843 9.26265558 36.72764129 8 40 C6.68 39.67 5.36 39.34 4 39 C3.67 40.98 3.34 42.96 3 45 C2.67 45 2.34 45 2 45 C1.97107615 40.87501462 1.95322733 36.75005515 1.9375 32.625 C1.92912109 31.449375 1.92074219 30.27375 1.91210938 29.0625 C1.90888672 27.94101563 1.90566406 26.81953125 1.90234375 25.6640625 C1.89710693 24.62717285 1.89187012 23.5902832 1.88647461 22.52197266 C2 20 2 20 3 18 C2.01 17.67 1.02 17.34 0 17 C0 11.39 0 5.78 0 0 Z " fill="#D0A735" transform="translate(195,65)"/>
<path d="M0 0 C1.79824219 0.00966797 1.79824219 0.00966797 3.6328125 0.01953125 C5.4890625 0.04466797 5.4890625 0.04466797 7.3828125 0.0703125 C8.64351562 0.07933594 9.90421875 0.08835938 11.203125 0.09765625 C14.30476931 0.12115356 17.40631553 0.15702241 20.5078125 0.1953125 C21.8278125 5.4753125 23.1478125 10.7553125 24.5078125 16.1953125 C23.5178125 16.1953125 22.5278125 16.1953125 21.5078125 16.1953125 C20.25390625 14.76953125 20.25390625 14.76953125 18.9453125 12.8828125 C15.24212555 8.36382446 11.20398051 7.00169773 5.5078125 6.1953125 C0.18279972 6.07735336 -4.24395263 6.7967246 -8.4921875 10.1953125 C-11.36854555 13.31821553 -13.1167151 16.18351799 -14.4921875 20.1953125 C-14.8221875 20.1953125 -15.1521875 20.1953125 -15.4921875 20.1953125 C-15.6171875 13.4453125 -15.6171875 13.4453125 -14.4921875 11.1953125 C-15.4821875 11.1953125 -16.4721875 11.1953125 -17.4921875 11.1953125 C-17.8221875 9.5453125 -18.1521875 7.8953125 -18.4921875 6.1953125 C-12.38938037 1.83616455 -7.51942974 -0.07161362 0 0 Z " fill="#C7A741" transform="translate(121.4921875,62.8046875)"/>
<path d="M0 0 C2.12559213 2.12559213 2.51800334 3.15129376 3.3671875 5.95703125 C3.61339844 6.74013672 3.85960937 7.52324219 4.11328125 8.33007812 C4.61713645 9.97212929 5.11720028 11.61534908 5.61328125 13.25976562 C7.08970621 17.93001141 8.57893356 21.34938149 12 25 C6.0885256 25.77313045 0.8685408 26.14819277 -5 25 C-6.08557892 21.74004193 -5.91310151 19.89457573 -4.78515625 16.671875 C-4.51123047 15.87265625 -4.23730469 15.0734375 -3.95507812 14.25 C-3.66052734 13.425 -3.36597656 12.6 -3.0625 11.75 C-2.62647461 10.48929688 -2.62647461 10.48929688 -2.18164062 9.203125 C-1.46378767 7.13194269 -0.73633881 5.06466738 0 3 C-2.61047801 4.305239 -2.68066423 5.35826574 -3.625 8.0625 C-3.88539063 8.79597656 -4.14578125 9.52945313 -4.4140625 10.28515625 C-4.60742188 10.85105469 -4.80078125 11.41695312 -5 12 C-5.99 12 -6.98 12 -8 12 C-9.39300182 10.04109119 -10.72245446 8.0360882 -12 6 C-13.62351109 4.20605554 -13.62351109 4.20605554 -15 3 C-12.69 3.66 -10.38 4.32 -8 5 C-7.608125 4.54625 -7.21625 4.0925 -6.8125 3.625 C-4.69167513 1.72357081 -2.66957765 0.93795972 0 0 Z " fill="#D39455" transform="translate(260,97)"/>
<path d="M0 0 C0.33 0 0.66 0 1 0 C1.02505615 0.89831543 1.0501123 1.79663086 1.07592773 2.72216797 C1.17098693 6.05074869 1.27022421 9.37914994 1.37231445 12.70751953 C1.41566231 14.1488762 1.45733752 15.59028418 1.49731445 17.03173828 C1.55502088 19.10204541 1.61871371 21.17209432 1.68359375 23.2421875 C1.72025146 24.4885498 1.75690918 25.73491211 1.79467773 27.01904297 C1.80289479 29.92636942 1.80289479 29.92636942 3 32 C6.465 31.505 6.465 31.505 10 31 C10 26.05 10 21.1 10 16 C10.33 16 10.66 16 11 16 C11.01981934 16.88260498 11.03963867 17.76520996 11.06005859 18.67456055 C11.13837866 21.96421957 11.22507855 25.25343964 11.31738281 28.54272461 C11.35555149 29.9635373 11.39042513 31.38444263 11.421875 32.80541992 C11.46779065 34.85368855 11.52573805 36.90132608 11.5859375 38.94921875 C11.6173584 40.17987061 11.6487793 41.41052246 11.68115234 42.6784668 C11.9869749 45.86431361 12.78097979 48.07911789 14 51 C13.67 51.66 13.34 52.32 13 53 C11.37509046 53.02698189 9.75005367 53.04638757 8.125 53.0625 C6.76761719 53.07990234 6.76761719 53.07990234 5.3828125 53.09765625 C3 53 3 53 1 52 C1.47875009 44.49958194 4.8973684 39.15394741 9 33 C8.01 33 7.02 33 6 33 C5.5978125 34.051875 5.5978125 34.051875 5.1875 35.125 C3.9318551 38.1649824 2.49764877 41.0727774 1 44 C0.67 44 0.34 44 0 44 C0 29.48 0 14.96 0 0 Z " fill="#D0975B" transform="translate(159,70)"/>
<path d="M0 0 C15.18 0 30.36 0 46 0 C50 16 50 16 50 18 C47 17 47 17 45.1875 14.125 C41.18917923 8.41311318 35.4712428 7.45045097 29 6 C29 5.34 29 4.68 29 4 C30.36125 4.309375 30.36125 4.309375 31.75 4.625 C35.25274747 5.32928368 35.25274747 5.32928368 39 3 C26.46 3 13.92 3 1 3 C0.67 5.64 0.34 8.28 0 11 C0.66 11.33 1.32 11.66 2 12 C0.7260411 14.03833424 -0.61061923 16.03852126 -2 18 C-2.66 18 -3.32 18 -4 18 C-3.71301899 16.31169683 -3.42014974 14.62439428 -3.125 12.9375 C-2.96257812 11.99777344 -2.80015625 11.05804688 -2.6328125 10.08984375 C-1.93541094 6.68462997 -0.95490194 3.34215681 0 0 Z " fill="#C5A83D" transform="translate(271,63)"/>
<path d="M0 0 C0.33 0 0.66 0 1 0 C1 8.58 1 17.16 1 26 C1.66 26 2.32 26 3 26 C3.33 25.01 3.66 24.02 4 23 C5.98 23 7.96 23 10 23 C10 21.35 10 19.7 10 18 C10.33 18 10.66 18 11 18 C11.33 19.98 11.66 21.96 12 24 C9.69 25.32 7.38 26.64 5 28 C6.98 27.67 8.96 27.34 11 27 C12.18090452 33.14070352 12.18090452 33.14070352 11.5 36.375 C9.02999391 39.05083993 6.53527942 38.8261338 3 39 C0.65739357 38.7397104 -1.6817571 38.42579972 -4 38 C-4 37.34 -4 36.68 -4 36 C-3.01 35.505 -3.01 35.505 -2 35 C-0.84160957 31.52482871 -0.77198782 28.3272998 -0.68359375 24.70703125 C-0.66281265 24.00100266 -0.64203156 23.29497406 -0.62062073 22.56755066 C-0.55532509 20.31596449 -0.49633353 18.06426338 -0.4375 15.8125 C-0.39429575 14.2844934 -0.35068084 12.75649836 -0.30664062 11.22851562 C-0.19966426 7.48579438 -0.09834078 3.7429577 0 0 Z " fill="#DA8F65" transform="translate(195,84)"/>
<path d="M0 0 C0.33 0.66 0.66 1.32 1 2 C1.99 2 2.98 2 4 2 C5.25127906 5.54667178 4.72285053 7.72253438 3.5625 11.25 C3.27503906 12.14203125 2.98757812 13.0340625 2.69140625 13.953125 C2.46324219 14.62859375 2.23507813 15.3040625 2 16 C4.31 16 6.62 16 9 16 C9 16.99 9 17.98 9 19 C3.053928 22.03910346 -2.36906706 22.65226572 -9 23 C-9 22.01 -9 21.02 -9 20 C-8.07767578 19.34644531 -8.07767578 19.34644531 -7.13671875 18.6796875 C-4.31955256 16.46509616 -3.85056609 14.52307757 -2.8125 11.125 C-2.48894531 10.09632813 -2.16539062 9.06765625 -1.83203125 8.0078125 C-1.09607191 5.3473022 -0.4957642 2.71418381 0 0 Z " fill="#FDE7FC" transform="translate(201,127)"/>
<path d="M0 0 C0.763125 0.0825 1.52625 0.165 2.3125 0.25 C2.36701714 2.29136395 2.40552485 4.33315856 2.4375 6.375 C2.46070313 7.51195313 2.48390625 8.64890625 2.5078125 9.8203125 C2.30922109 13.30757767 1.5649801 16.0053862 0.3125 19.25 C-1.0075 18.92 -2.3275 18.59 -3.6875 18.25 C-4.0175 20.23 -4.3475 22.21 -4.6875 24.25 C-5.0175 24.25 -5.3475 24.25 -5.6875 24.25 C-5.77478882 21.00017 -5.82798658 17.7506425 -5.875 14.5 C-5.90013672 13.57960938 -5.92527344 12.65921875 -5.95117188 11.7109375 C-5.96083984 10.82148437 -5.97050781 9.93203125 -5.98046875 9.015625 C-5.9961792 8.19868164 -6.01188965 7.38173828 -6.02807617 6.54003906 C-5.44464336 2.61702845 -4.02190473 0.37413067 0 0 Z " fill="#D4A13E" transform="translate(202.6875,85.75)"/>
<path d="M0 0 C1.32 0 2.64 0 4 0 C3.23269352 8.23680018 1.06442088 15.09357004 -5 21 C-7.5859375 21.89453125 -7.5859375 21.89453125 -10 22 C-12.3125 20.0625 -12.3125 20.0625 -14 18 C-13.01 16.515 -13.01 16.515 -12 15 C-11.34 15 -10.68 15 -10 15 C-9.01 16.485 -9.01 16.485 -8 18 C-5.41222792 14.94419026 -5.41222792 14.94419026 -5 11 C-4.16015625 9.0625 -4.16015625 9.0625 -3.0625 7 C-1.81535003 4.63980222 -0.84973168 2.54919504 0 0 Z " fill="#FEE2FB" transform="translate(167,129)"/>
<path d="M0 0 C0.66 0 1.32 0 2 0 C2 0.99 2 1.98 2 3 C2.66 3.33 3.32 3.66 4 4 C2.68 10.93 1.36 17.86 0 25 C-1.32 25.33 -2.64 25.66 -4 26 C-5.54870667 16.24314801 -3.62519786 9.06299464 0 0 Z " fill="#FEEAFB" transform="translate(222,123)"/>
<path d="M0 0 C0.66 0 1.32 0 2 0 C0.96279351 6.33053614 -1.65813442 12.0552643 -4 18 C-10.93 18 -17.86 18 -25 18 C-25 17.34 -25 16.68 -25 16 C-18.4 16 -11.8 16 -5 16 C-5.33 14.68 -5.66 13.36 -6 12 C-7.98 12 -9.96 12 -12 12 C-7.41176471 8.17647059 -7.41176471 8.17647059 -4.8125 7.0625 C-2.25567705 5.56367276 -1.91353596 3.74060789 -1 1 C-0.67 0.67 -0.34 0.34 0 0 Z " fill="#C9A651" transform="translate(150,105)"/>
<path d="M0 0 C1.87109375 0.66015625 1.87109375 0.66015625 4 2 C5.16015625 4.49609375 5.16015625 4.49609375 6.0625 7.4375 C7.19743879 11.09560743 8.02475545 13.51360583 11 16 C9.37585622 16.19477739 7.75063577 16.38059458 6.125 16.5625 C5.22007812 16.66691406 4.31515625 16.77132812 3.3828125 16.87890625 C1 17 1 17 -1 16 C-1.02685095 13.52076199 -1.04676547 11.0418116 -1.0625 8.5625 C-1.07506836 7.50192383 -1.07506836 7.50192383 -1.08789062 6.41992188 C-1.09653588 4.61306441 -1.05220011 2.80612397 -1 1 C-0.67 0.67 -0.34 0.34 0 0 Z " fill="#D39E4C" transform="translate(261,106)"/>
<path d="M0 0 C8.91 0 17.82 0 27 0 C28.32 5.28 29.64 10.56 31 16 C30.01 16 29.02 16 28 16 C26.5703125 14.5390625 26.5703125 14.5390625 25.125 12.625 C22.6861151 9.60687994 20.8524702 8.01977152 17 7 C17 6.67 17 6.34 17 6 C18.65 6 20.3 6 22 6 C22.33 5.34 22.66 4.68 23 4 C23.66 4.33 24.32 4.66 25 5 C25 4.01 25 3.02 25 2 C16.75 1.67 8.5 1.34 0 1 C0 0.67 0 0.34 0 0 Z " fill="#CAA940" transform="translate(115,63)"/>
<path d="M0 0 C1.32 0.33 2.64 0.66 4 1 C5.15837626 5.05431692 4.83691257 7.21812119 3 11 C2.34 11 1.68 11 1 11 C0.71125 12.0725 0.4225 13.145 0.125 14.25 C-0.72820109 17.09400364 -1.5636503 19.43508983 -3 22 C-3.66 21.67 -4.32 21.34 -5 21 C-4.01 18.03 -3.02 15.06 -2 12 C-2.99 12.33 -3.98 12.66 -5 13 C-4.67 11.02 -4.34 9.04 -4 7 C-3.01 6.67 -2.02 6.34 -1 6 C-0.67 4.02 -0.34 2.04 0 0 Z " fill="#FEE3F9" transform="translate(173,117)"/>
<path d="M0 0 C0.66 0 1.32 0 2 0 C1.67 1.65 1.34 3.3 1 5 C2.65 4.67 4.3 4.34 6 4 C5.34 6.97 4.68 9.94 4 13 C2.68 13 1.36 13 0 13 C-0.33 14.32 -0.66 15.64 -1 17 C-2.65 17 -4.3 17 -6 17 C-5.690625 16.29875 -5.38125 15.5975 -5.0625 14.875 C-3.90366665 12.04097665 -3.90366665 12.04097665 -3.5625 9.0625 C-2.93215218 5.6306063 -1.66855818 3.04693233 0 0 Z " fill="#CF9849" transform="translate(226,92)"/>
<path d="M0 0 C0.99 0 1.98 0 3 0 C2.72285156 0.55042969 2.44570312 1.10085937 2.16015625 1.66796875 C-2.82708365 11.40429964 -2.82708365 11.40429964 -5 22 C-6.65 22.33 -8.3 22.66 -10 23 C-10 23.66 -10 24.32 -10 25 C-10.66 25 -11.32 25 -12 25 C-11.34 23.02 -10.68 21.04 -10 19 C-10.66 18.67 -11.32 18.34 -12 18 C-11.01 17.34 -10.02 16.68 -9 16 C-8.21011855 14.04614933 -8.21011855 14.04614933 -7.8125 11.875 C-7.544375 10.59625 -7.27625 9.3175 -7 8 C-6.34 8.33 -5.68 8.66 -5 9 C-3.35 6.03 -1.7 3.06 0 0 Z " fill="#F7CEDC" transform="translate(165,103)"/>
<path d="M0 0 C1.65 0 3.3 0 5 0 C5.33 3.63 5.66 7.26 6 11 C5.01 11.33 4.02 11.66 3 12 C3 12.66 3 13.32 3 14 C3.66 14.33 4.32 14.66 5 15 C4.34 16.32 3.68 17.64 3 19 C2.34 17.68 1.68 16.36 1 15 C0.67 15.66 0.34 16.32 0 17 C-0.66 16.67 -1.32 16.34 -2 16 C-1.34 10.72 -0.68 5.44 0 0 Z " fill="#F1C5D3" transform="translate(188,108)"/>
<path d="M0 0 C15.18 0 30.36 0 46 0 C46 0.99 46 1.98 46 3 C31.15 3 16.3 3 1 3 C0.67 5.64 0.34 8.28 0 11 C0.66 11.33 1.32 11.66 2 12 C0.7260411 14.03833424 -0.61061923 16.03852126 -2 18 C-2.66 18 -3.32 18 -4 18 C-3.71301899 16.31169683 -3.42014974 14.62439428 -3.125 12.9375 C-2.96257812 11.99777344 -2.80015625 11.05804688 -2.6328125 10.08984375 C-1.93541094 6.68462997 -0.95490194 3.34215681 0 0 Z " fill="#C2A654" transform="translate(271,63)"/>
<path d="M0 0 C1.1446875 0.0928125 1.1446875 0.0928125 2.3125 0.1875 C2.3125 1.1775 2.3125 2.1675 2.3125 3.1875 C0.3325 3.5175 -1.6475 3.8475 -3.6875 4.1875 C-3.80867187 4.94933594 -3.92984375 5.71117188 -4.0546875 6.49609375 C-5.07499792 12.78277564 -6.24029729 18.98520268 -7.6875 25.1875 C-8.3475 25.1875 -9.0075 25.1875 -9.6875 25.1875 C-9.94078119 20.12187617 -9.02333899 16.02991633 -7.6875 11.1875 C-8.3475 10.8575 -9.0075 10.5275 -9.6875 10.1875 C-9.6875 8.5375 -9.6875 6.8875 -9.6875 5.1875 C-10.6775 4.8575 -11.6675 4.5275 -12.6875 4.1875 C-11.594375 4.084375 -10.50125 3.98125 -9.375 3.875 C-5.17017123 3.09104887 -3.98708813 0.27816894 0 0 Z " fill="#FAD6F1" transform="translate(257.6875,120.8125)"/>
<path d="M0 0 C0.33 0 0.66 0 1 0 C1.33 16.83 1.66 33.66 2 51 C3.32 51.33 4.64 51.66 6 52 C6 52.33 6 52.66 6 53 C-1.26 53 -8.52 53 -16 53 C-15.67 52.34 -15.34 51.68 -15 51 C-10.05 51.33 -5.1 51.66 0 52 C0 34.84 0 17.68 0 0 Z " fill="#C6A957" transform="translate(299,69)"/>
<path d="M0 0 C0.59554687 0.20753906 1.19109375 0.41507812 1.8046875 0.62890625 C1.49670424 2.10901996 1.1831695 3.5879795 0.8671875 5.06640625 C0.69316406 5.89011719 0.51914063 6.71382813 0.33984375 7.5625 C-0.1953125 9.62890625 -0.1953125 9.62890625 -1.1953125 10.62890625 C-2.71459288 10.70070589 -4.23698732 10.71282632 -5.7578125 10.69140625 C-6.58410156 10.68238281 -7.41039062 10.67335938 -8.26171875 10.6640625 C-8.89980469 10.65246094 -9.53789062 10.64085938 -10.1953125 10.62890625 C-9.07343463 5.8048314 -6.0375047 -1.02057464 0 0 Z " fill="#E38F7E" transform="translate(223.1953125,111.37109375)"/>
<path d="M0 0 C0.66 0 1.32 0 2 0 C1.50732632 5.54257889 -0.06699337 10.26236879 -2.0625 15.44921875 C-3.12720692 18.20558883 -3.12720692 18.20558883 -4 22 C-6.97 22.33 -9.94 22.66 -13 23 C-11.68 22.34 -10.36 21.68 -9 21 C-7.91094989 18.93923893 -7.91094989 18.93923893 -7.3125 16.5625 C-7.08175781 15.78003906 -6.85101563 14.99757813 -6.61328125 14.19140625 C-6.41089844 13.46824219 -6.20851562 12.74507812 -6 12 C-5.67 11.01 -5.34 10.02 -5 9 C-4.34 9 -3.68 9 -3 9 C-2.01 6.03 -1.02 3.06 0 0 Z " fill="#FBD5E6" transform="translate(258,100)"/>
<path d="M0 0 C1 2 1 2 -0.21484375 5.6953125 C-0.78133585 7.17485658 -1.35591889 8.65132181 -1.9375 10.125 C-2.22818359 10.87910156 -2.51886719 11.63320312 -2.81835938 12.41015625 C-3.53874998 14.27608602 -4.26850404 16.1383958 -5 18 C-4.39671875 18.03738281 -3.7934375 18.07476562 -3.171875 18.11328125 C4.76625659 18.76625659 4.76625659 18.76625659 8 22 C7.40832031 21.86722656 6.81664062 21.73445313 6.20703125 21.59765625 C2.14553475 20.68994822 -1.91374171 19.7908887 -6 19 C-6 16.36 -6 13.72 -6 11 C-7.32 11.33 -8.64 11.66 -10 12 C-9.34 9.36 -8.68 6.72 -8 4 C-7.34 5.32 -6.68 6.64 -6 8 C-2.52082818 5.68055212 -1.70570234 3.73630036 0 0 Z " fill="#C19E4C" transform="translate(239,74)"/>
<path d="M0 0 C8.91 0 17.82 0 27 0 C27 0.99 27 1.98 27 3 C25.741875 3.185625 24.48375 3.37125 23.1875 3.5625 C22.12595703 3.71912109 22.12595703 3.71912109 21.04296875 3.87890625 C19 4 19 4 16 3 C12.67902727 2.73038495 9.35840436 2.55500564 6.03125 2.37890625 C3 2 3 2 0 0 Z " fill="#CEA931" transform="translate(113,65)"/>
<path d="M0 0 C0.61875 0.33 1.2375 0.66 1.875 1 C3.91018344 2.14193235 3.91018344 2.14193235 6 2 C6.33 2.66 6.66 3.32 7 4 C6.67 4.66 6.34 5.32 6 6 C7.65 6.33 9.3 6.66 11 7 C10.01 7.66 9.02 8.32 8 9 C7.01 8.67 6.02 8.34 5 8 C4.67 8.66 4.34 9.32 4 10 C0.535 8.02 0.535 8.02 -3 6 C-1.125 1.125 -1.125 1.125 0 0 Z " fill="#D2AC36" transform="translate(111,112)"/>
<path d="M0 0 C0.66 0.99 1.32 1.98 2 3 C1.67 3.66 1.34 4.32 1 5 C0.34 5 -0.32 5 -1 5 C-0.67 3.35 -0.34 1.7 0 0 Z M-2 5 C-1.566875 5.639375 -1.13375 6.27875 -0.6875 6.9375 C0.91239177 9.26746003 0.91239177 9.26746003 4 10 C4 10.66 4 11.32 4 12 C-4.42857143 14.28571429 -4.42857143 14.28571429 -9 14 C-9 13.01 -9 12.02 -9 11 C-6 9 -6 9 -3 9 C-2.67 7.68 -2.34 6.36 -2 5 Z " fill="#FEEFFE" transform="translate(201,136)"/>
<path d="M0 0 C0.33 0 0.66 0 1 0 C1.02477941 4.8929813 1.04289763 9.7859258 1.05493164 14.67895508 C1.05995023 16.34237301 1.06676652 18.00578656 1.07543945 19.66918945 C1.08761357 22.06462693 1.09325314 24.46000591 1.09765625 26.85546875 C1.10281754 27.5952446 1.10797882 28.33502045 1.11329651 29.09721375 C1.11370241 32.86083154 0.90758309 36.34140381 0 40 C-2.31 40 -4.62 40 -7 40 C-6.67 38.68 -6.34 37.36 -6 36 C-5.67 36.66 -5.34 37.32 -5 38 C-4.01 38 -3.02 38 -2 38 C-1.13408017 33.44544661 -0.81329263 29.04616545 -0.68359375 24.4140625 C-0.66281265 23.71227875 -0.64203156 23.010495 -0.62062073 22.28744507 C-0.55573676 20.06672042 -0.4965277 17.84588724 -0.4375 15.625 C-0.39425646 14.11066629 -0.3506404 12.59634317 -0.30664062 11.08203125 C-0.20011914 7.38813345 -0.09868323 3.69411646 0 0 Z " fill="#BE994D" transform="translate(205,67)"/>
<path d="M0 0 C2 3 2 3 1.6875 6.0625 C1 9 1 9 0 11 C-2.32156597 11.40729228 -4.6568787 11.74438677 -7 12 C-7.33 11.34 -7.66 10.68 -8 10 C-6.35 9.67 -4.7 9.34 -3 9 C-3.66 6.69 -4.32 4.38 -5 2 C-3.35 1.34 -1.7 0.68 0 0 Z " fill="#DF9077" transform="translate(205,111)"/>
<path d="M0 0 C-0.66 1.98 -1.32 3.96 -2 6 C-6.455 6.495 -6.455 6.495 -11 7 C-11 5.68 -11 4.36 -11 3 C-11.66 2.34 -12.32 1.68 -13 1 C-11.39796533 0.63631108 -9.79325797 0.28438048 -8.1875 -0.0625 C-7.29417969 -0.25972656 -6.40085938 -0.45695312 -5.48046875 -0.66015625 C-3 -1 -3 -1 0 0 Z " fill="#F6D3E0" transform="translate(223,104)"/>
<path d="M0 0 C0.33 0 0.66 0 1 0 C0.99214478 1.51352051 0.99214478 1.51352051 0.98413086 3.05761719 C0.96600738 6.80728262 0.95454112 10.55694418 0.94506836 14.30664062 C0.94004495 15.92839204 0.93322506 17.55013895 0.92456055 19.171875 C0.91240771 21.50521969 0.90675172 23.8385044 0.90234375 26.171875 C0.89718246 26.89493835 0.89202118 27.61800171 0.88670349 28.36297607 C0.88633082 31.7201275 0.95092381 34.79106108 2 38 C0.02 38 -1.96 38 -4 38 C-4 37.34 -4 36.68 -4 36 C-3.01 35.505 -3.01 35.505 -2 35 C-0.84160957 31.52482871 -0.77198782 28.3272998 -0.68359375 24.70703125 C-0.66281265 24.00100266 -0.64203156 23.29497406 -0.62062073 22.56755066 C-0.55532509 20.31596449 -0.49633353 18.06426338 -0.4375 15.8125 C-0.39429575 14.2844934 -0.35068084 12.75649836 -0.30664062 11.22851562 C-0.19966426 7.48579438 -0.09834078 3.7429577 0 0 Z " fill="#C69368" transform="translate(195,84)"/>
<path d="M0 0 C7.59 0 15.18 0 23 0 C21.35 1.65 19.7 3.3 18 5 C17.67 4.01 17.34 3.02 17 2 C13.37 1.67 9.74 1.34 6 1 C6.33 1.99 6.66 2.98 7 4 C7.068991 6.06145107 7.08467727 8.12501401 7.0625 10.1875 C7.05347656 11.27417969 7.04445312 12.36085938 7.03515625 13.48046875 C7.02355469 14.31191406 7.01195312 15.14335938 7 16 C6.67 16 6.34 16 6 16 C5.85304687 14.64455078 5.85304687 14.64455078 5.703125 13.26171875 C5.55359375 12.08222656 5.4040625 10.90273437 5.25 9.6875 C5.11078125 8.51574219 4.9715625 7.34398438 4.828125 6.13671875 C4.21983947 2.51869319 4.21983947 2.51869319 0 0 Z " fill="#BFA757" transform="translate(189,64)"/>
<path d="M0 0 C1.8133922 3.20010388 2.52213974 6.13283843 3.125 9.75 C3.29257812 10.73484375 3.46015625 11.7196875 3.6328125 12.734375 C3.81457031 13.85585937 3.81457031 13.85585937 4 15 C-0.02152847 13.65949051 -0.70273254 11.48070827 -3 8 C-5.10575643 6.16699091 -5.10575643 6.16699091 -7 5 C-5.35 5 -3.7 5 -2 5 C-1.34 3.35 -0.68 1.7 0 0 Z " fill="#BEA248" transform="translate(317,66)"/>
<path d="M0 0 C8.91 0 17.82 0 27 0 C27.33 2.31 27.66 4.62 28 7 C27.01 7 26.02 7 25 7 C25 5.35 25 3.7 25 2 C16.75 1.67 8.5 1.34 0 1 C0 0.67 0 0.34 0 0 Z " fill="#C0A754" transform="translate(115,63)"/>
<path d="M0 0 C0.66 0 1.32 0 2 0 C1.32829194 3.8063457 0.27253436 7.35206816 -1 11 C-1.33 10.01 -1.66 9.02 -2 8 C-3.093125 8.680625 -4.18625 9.36125 -5.3125 10.0625 C-7.17578125 11.22265625 -7.17578125 11.22265625 -9 12 C-9.99 11.67 -10.98 11.34 -12 11 C-10.87926138 10.16094435 -9.75325453 9.32892169 -8.625 8.5 C-7.99851563 8.0359375 -7.37203125 7.571875 -6.7265625 7.09375 C-5 6 -5 6 -3 6 C-2.690625 5.195625 -2.38125 4.39125 -2.0625 3.5625 C-1 1 -1 1 0 0 Z " fill="#BF9C56" transform="translate(150,105)"/>
<path d="M0 0 C0.33 0 0.66 0 1 0 C1 1.65 1 3.3 1 5 C3.88437779 3.70700306 5.87219421 2.34058637 8 0 C7.67 1.98 7.34 3.96 7 6 C5.68 6 4.36 6 3 6 C2.67 7.32 2.34 8.64 2 10 C0.35 10 -1.3 10 -3 10 C-2.690625 9.278125 -2.38125 8.55625 -2.0625 7.8125 C-1.07439461 5.19692691 -0.4712246 2.74881018 0 0 Z " fill="#DA9380" transform="translate(223,99)"/>
<path d="M0 0 C0.99 0 1.98 0 3 0 C2.72414062 0.54140625 2.44828125 1.0828125 2.1640625 1.640625 C0.84259131 4.31904312 -0.39400376 7.02885041 -1.625 9.75 C-2.29402344 11.22726563 -2.29402344 11.22726563 -2.9765625 12.734375 C-3.31429687 13.48203125 -3.65203125 14.2296875 -4 15 C-4.33 14.34 -4.66 13.68 -5 13 C-5.66 13 -6.32 13 -7 13 C-7 11.35 -7 9.7 -7 8 C-6.01 8.495 -6.01 8.495 -5 9 C-3.35 6.03 -1.7 3.06 0 0 Z " fill="#FBCFD0" transform="translate(165,103)"/>
<path d="M0 0 C1.32 0.33 2.64 0.66 4 1 C3.50769231 8.38461538 3.50769231 8.38461538 0.9375 11.5 C0.298125 11.995 -0.34125 12.49 -1 13 C-2.20577428 8.05632546 -1.6290678 4.79137588 0 0 Z " fill="#FEEAFB" transform="translate(155,126)"/>
<path d="M0 0 C1.32 0 2.64 0 4 0 C5.15837626 4.05431692 4.83691257 6.21812119 3 10 C2.34 9.67 1.68 9.34 1 9 C1.33 8.34 1.66 7.68 2 7 C1.01 7 0.02 7 -1 7 C-0.67 4.69 -0.34 2.38 0 0 Z " fill="#FBDFED" transform="translate(203,122)"/>
<path d="M0 0 C0.66 0 1.32 0 2 0 C1.67 1.32 1.34 2.64 1 4 C1.66 4 2.32 4 3 4 C2.14285714 12.57142857 2.14285714 12.57142857 0 16 C-0.66 15.67 -1.32 15.34 -2 15 C-1.01 12.03 -0.02 9.06 1 6 C0.01 6.33 -0.98 6.66 -2 7 C-1.125 1.125 -1.125 1.125 0 0 Z " fill="#EFC5DE" transform="translate(170,123)"/>
<path d="M0 0 C0.66 0 1.32 0 2 0 C1.49202991 4.3177458 0.80317221 8.03302114 -1 12 C-2.32 11.67 -3.64 11.34 -5 11 C-5 10.34 -5 9.68 -5 9 C-4.34 9 -3.68 9 -3 9 C-2.01 6.03 -1.02 3.06 0 0 Z " fill="#F8C9C8" transform="translate(258,100)"/>
<path d="M0 0 C0.66 0 1.32 0 2 0 C1.49396008 2.16874252 1.00016187 3.99967627 0 6 C-1.65 6 -3.3 6 -5 6 C-5.33 6.99 -5.66 7.98 -6 9 C-6 8.01 -6 7.02 -6 6 C-6.66 6 -7.32 6 -8 6 C-7.34 4.35 -6.68 2.7 -6 1 C-5.01 1 -4.02 1 -3 1 C-3 2.32 -3 3.64 -3 5 C-2.34 5 -1.68 5 -1 5 C-0.67 3.35 -0.34 1.7 0 0 Z " fill="#FBD2D3" transform="translate(213,116)"/>
<path d="M0 0 C0.66 0.33 1.32 0.66 2 1 C1.67 1.99 1.34 2.98 1 4 C0.34 4 -0.32 4 -1 4 C-1.13277344 4.69867188 -1.26554688 5.39734375 -1.40234375 6.1171875 C-1.57894531 7.02726562 -1.75554687 7.93734375 -1.9375 8.875 C-2.11152344 9.77992187 -2.28554687 10.68484375 -2.46484375 11.6171875 C-3 14 -3 14 -4 16 C-4.66 16 -5.32 16 -6 16 C-5.59683075 9.68368172 -3.28767869 5.35006016 0 0 Z " fill="#D68C72" transform="translate(166,106)"/>
<path d="M0 0 C0.33 0 0.66 0 1 0 C1.13833992 8.30039526 1.13833992 8.30039526 0 12 C0 12.66 0 13.32 0 14 C-1.32 14.33 -2.64 14.66 -4 15 C-3.50341703 9.33895411 -2.45489316 5.12325529 0 0 Z " fill="#D68674" transform="translate(258,107)"/>
<path d="M0 0 C2 0 2 0 3.625 1.5 C4.07875 1.995 4.5325 2.49 5 3 C4.34 4.65 3.68 6.3 3 8 C1.68 7.67 0.36 7.34 -1 7 C-0.67 4.69 -0.34 2.38 0 0 Z " fill="#F7D7EE" transform="translate(244,146)"/>
<path d="M0 0 C0 1.32 0 2.64 0 4 C-1.27875 4.061875 -2.5575 4.12375 -3.875 4.1875 C-4.59429687 4.22230469 -5.31359375 4.25710937 -6.0546875 4.29296875 C-6.69664062 4.19628906 -7.33859375 4.09960938 -8 4 C-8.66 3.01 -9.32 2.02 -10 1 C-6.78548731 -0.60725635 -3.56387464 -0.05748185 0 0 Z " fill="#F4D5E2" transform="translate(249,105)"/>
<path d="M0 0 C7.59 0 15.18 0 23 0 C21.68 0.99 20.36 1.98 19 3 C18.67 2.34 18.34 1.68 18 1 C14.04 1 10.08 1 6 1 C6 1.66 6 2.32 6 3 C4.02 2.34 2.04 1.68 0 1 C0 0.67 0 0.34 0 0 Z " fill="#C0A657" transform="translate(153,64)"/>
<path d="M0 0 C1.32 0 2.64 0 4 0 C4.33 1.65 4.66 3.3 5 5 C3.02 5.33 1.04 5.66 -1 6 C-1.625 4.125 -1.625 4.125 -2 2 C-1.34 1.34 -0.68 0.68 0 0 Z " fill="#DB9154" transform="translate(197,115)"/>
<path d="M0 0 C0 3.41775006 -0.24982104 6.77881173 -0.5 10.1875 C-0.5928125 11.45980469 -0.685625 12.73210937 -0.78125 14.04296875 C-0.8534375 15.01878906 -0.925625 15.99460937 -1 17 C-1.66 17 -2.32 17 -3 17 C-3.33 14.69 -3.66 12.38 -4 10 C-3.67 10 -3.34 10 -3 10 C-2.87625 8.72125 -2.7525 7.4425 -2.625 6.125 C-2.25 2.25 -2.25 2.25 0 0 Z " fill="#DD9157" transform="translate(261,104)"/>
<path d="M0 0 C2.31 0.33 4.62 0.66 7 1 C5.9024777 3.99324263 5.32317108 4.84610901 2.375 6.25 C1.59125 6.4975 0.8075 6.745 0 7 C-0.66 5.68 -1.32 4.36 -2 3 C-1.34 2.01 -0.68 1.02 0 0 Z " fill="#FCDAF6" transform="translate(174,140)"/>
<path d="M0 0 C0.78375 0.04125 1.5675 0.0825 2.375 0.125 C2.375 1.115 2.375 2.105 2.375 3.125 C0.395 3.455 -1.585 3.785 -3.625 4.125 C-3.955 6.105 -4.285 8.085 -4.625 10.125 C-4.955 10.125 -5.285 10.125 -5.625 10.125 C-4.66666667 0.22222222 -4.66666667 0.22222222 0 0 Z " fill="#FBD1DA" transform="translate(257.625,120.875)"/>
<path d="M0 0 C0.99 0 1.98 0 3 0 C4.125 3.75 4.125 3.75 3 6 C1.02 6 -0.96 6 -3 6 C-1.125 1.125 -1.125 1.125 0 0 Z " fill="#E09068" transform="translate(218,115)"/>
<path d="M0 0 C0.33 0 0.66 0 1 0 C0.67 2.97 0.34 5.94 0 9 C1.32 9.33 2.64 9.66 4 10 C1 12 1 12 -2 12 C-1.85962479 10.18706911 -1.71255111 8.3746557 -1.5625 6.5625 C-1.48128906 5.55316406 -1.40007812 4.54382813 -1.31640625 3.50390625 C-1 1 -1 1 0 0 Z " fill="#F8C9D7" transform="translate(227,111)"/>
<path d="M0 0 C1.32 0.33 2.64 0.66 4 1 C3.625 3.4375 3.625 3.4375 3 6 C2.01 6.495 2.01 6.495 1 7 C0.01 6.34 -0.98 5.68 -2 5 C-1.34 3.35 -0.68 1.7 0 0 Z " fill="#CFA830" transform="translate(313,65)"/>
<path d="M0 0 C2.95183101 2.95183101 3.08663988 5.95511947 4 10 C3.34 10 2.68 10 2 10 C1.67 9.34 1.34 8.68 1 8 C0.01 8.495 0.01 8.495 -1 9 C-0.67 7.02 -0.34 5.04 0 3 C-0.99 3.33 -1.98 3.66 -3 4 C-3 3.34 -3 2.68 -3 2 C-2.01 1.34 -1.02 0.68 0 0 Z " fill="#C88D65" transform="translate(260,97)"/>
<path d="M0 0 C0.33 0 0.66 0 1 0 C1 2.64 1 5.28 1 8 C-1.31 8 -3.62 8 -6 8 C-5.67 6.68 -5.34 5.36 -5 4 C-4.67 4.66 -4.34 5.32 -4 6 C-3.01 6 -2.02 6 -1 6 C-0.67 4.02 -0.34 2.04 0 0 Z " fill="#DA984E" transform="translate(204,99)"/>
<path d="M0 0 C0.33 0 0.66 0 1 0 C0.9071875 1.3921875 0.9071875 1.3921875 0.8125 2.8125 C0.69105736 5.98395103 0.69105736 5.98395103 2.5 7.875 C2.995 8.24625 3.49 8.6175 4 9 C2.35 9.66 0.7 10.32 -1 11 C-2.0257259 6.58937864 -2.03684712 4.07369424 0 0 Z " fill="#CF945A" transform="translate(225,93)"/>
<path d="M0 0 C1.01527342 4.06109369 1.05430484 4.66966838 -0.4375 8.25 C-0.72496094 8.95640625 -1.01242188 9.6628125 -1.30859375 10.390625 C-1.53675781 10.92171875 -1.76492187 11.4528125 -2 12 C-2.99 11.67 -3.98 11.34 -5 11 C-3.35 7.37 -1.7 3.74 0 0 Z " fill="#FADBF5" transform="translate(200,134)"/>
<path d="M0 0 C0.99 0.33 1.98 0.66 3 1 C0.525 5.455 0.525 5.455 -2 10 C-2.33 10 -2.66 10 -3 10 C-3 7.69 -3 5.38 -3 3 C-2.34 3 -1.68 3 -1 3 C-0.67 2.01 -0.34 1.02 0 0 Z " fill="#D59279" transform="translate(162,104)"/>
<path d="M0 0 C1.98 0.495 1.98 0.495 4 1 C4.33 2.32 4.66 3.64 5 5 C3.68 5 2.36 5 1 5 C0.01 5.495 0.01 5.495 -1 6 C-0.67 4.02 -0.34 2.04 0 0 Z " fill="#EFC9D7" transform="translate(173,117)"/>
<path d="M0 0 C0.66 0.66 1.32 1.32 2 2 C5.58343976 2.16677282 5.58343976 2.16677282 9 2 C9 2.33 9 2.66 9 3 C3.555 4.485 3.555 4.485 -2 6 C-1.34 4.02 -0.68 2.04 0 0 Z " fill="#C2A541" transform="translate(276,67)"/>
<path d="M0 0 C0.99 0 1.98 0 3 0 C3.66 1.32 4.32 2.64 5 4 C4.34 4 3.68 4 3 4 C3 4.66 3 5.32 3 6 C1.68 5.67 0.36 5.34 -1 5 C-0.67 3.35 -0.34 1.7 0 0 Z " fill="#FEF5FF" transform="translate(231,136)"/>
<path d="M0 0 C0.99 0.33 1.98 0.66 3 1 C2.34 2.98 1.68 4.96 1 7 C-0.32 6.67 -1.64 6.34 -3 6 C-2.34 6 -1.68 6 -1 6 C-1.33 4.35 -1.66 2.7 -2 1 C-1.34 0.67 -0.68 0.34 0 0 Z " fill="#EFC7CE" transform="translate(220,103)"/>
<path d="M0 0 C0.66 0.33 1.32 0.66 2 1 C0.7260411 3.03833424 -0.61061923 5.03852126 -2 7 C-2.66 7 -3.32 7 -4 7 C-3.67 5.02 -3.34 3.04 -3 1 C-2.01 0.67 -1.02 0.34 0 0 Z " fill="#B19B52" transform="translate(271,74)"/>
<path d="M0 0 C0.33 0.66 0.66 1.32 1 2 C2.65 1.34 4.3 0.68 6 0 C4.02 2.97 4.02 2.97 2 6 C1.34 5.67 0.68 5.34 0 5 C0 3.35 0 1.7 0 0 Z " fill="#F6CDEB" transform="translate(157,142)"/>
<path d="M0 0 C1.2077558 3.62326739 0.54311128 4.64146369 -1 8 C-1.99 8 -2.98 8 -4 8 C-4.33 7.01 -4.66 6.02 -5 5 C-4.01 4.67 -3.02 4.34 -2 4 C-0.79117904 1.99983534 -0.79117904 1.99983534 0 0 Z " fill="#D5876F" transform="translate(256,101)"/>
<path d="M0 0 C1.64826111 2.96687001 2.44271087 5.65626525 3 9 C2.01 9 1.02 9 0 9 C-0.66 7.68 -1.32 6.36 -2 5 C-1.34 5 -0.68 5 0 5 C0 3.35 0 1.7 0 0 Z " fill="#B29755" transform="translate(143,70)"/>
<path d="M0 0 C2.97 0.495 2.97 0.495 6 1 C5.67 1.66 5.34 2.32 5 3 C1.9375 3.625 1.9375 3.625 -1 4 C-0.67 2.68 -0.34 1.36 0 0 Z " fill="#F6C8CA" transform="translate(226,105)"/>
<path d="M0 0 C2 1 2 1 2 1 Z " fill="#FFFF7F" transform="translate(190,62)"/>
</svg>
